<svg width="21" height="20" viewBox="0 0 21 20" fill="none" xmlns="http://www.w3.org/2000/svg">
<g id="medal 1" clip-path="url(#clip0_749_327)">
<path id="Vector" d="M10.4938 9.16677C11.4143 9.16677 12.1605 8.42058 12.1605 7.5001C12.1605 6.57963 11.4143 5.83344 10.4938 5.83344C9.57334 5.83344 8.82715 6.57963 8.82715 7.5001C8.82715 8.42058 9.57334 9.16677 10.4938 9.16677Z" fill="#4B4B4B"/>
<path id="Vector_2" d="M10.4938 9.16677C11.4143 9.16677 12.1605 8.42058 12.1605 7.5001C12.1605 6.57963 11.4143 5.83344 10.4938 5.83344C9.57334 5.83344 8.82715 6.57963 8.82715 7.5001C8.82715 8.42058 9.57334 9.16677 10.4938 9.16677Z" fill="#E5E5E6"/>
<path id="Vector_3" d="M10.5013 20.0001C13.723 20.0001 16.3346 17.3884 16.3346 14.1668C16.3346 10.9451 13.723 8.33344 10.5013 8.33344C7.27964 8.33344 4.66797 10.9451 4.66797 14.1668C4.66797 17.3884 7.27964 20.0001 10.5013 20.0001Z" fill="#4B4B4B"/>
<path id="Vector_4" opacity="0.1" d="M10.5014 19.7918C9.26816 19.7924 8.06594 19.4054 7.06463 18.6855C6.06333 17.9656 5.31359 16.9493 4.92138 15.7801C4.85107 15.5681 4.79319 15.3522 4.74805 15.1334C4.77721 15.3051 4.81305 15.4743 4.85638 15.6401C5.51221 18.1451 7.79388 20.0001 10.5014 20.0001C13.1322 20.0001 15.363 18.2476 16.0872 15.8493C16.158 15.6159 16.2139 15.3776 16.2547 15.1334C16.2165 15.3184 16.1693 15.5014 16.113 15.6818C15.7361 16.8745 14.9889 17.916 13.9798 18.655C12.9706 19.3941 11.7522 19.7923 10.5014 19.7918Z" fill="#010101"/>
<path id="Vector_5" opacity="0.2" d="M10.5014 8.54177C13.3314 8.54177 15.7055 10.5451 16.2539 13.2001C15.7914 10.4434 13.3872 8.33344 10.5014 8.33344C7.61555 8.33344 5.21055 10.4426 4.74805 13.2001C5.29638 10.5451 7.67138 8.54177 10.5014 8.54177Z" fill="#4B4B4B"/>
<path id="Vector_6" d="M10.5075 18.3334C12.8087 18.3334 14.6742 16.4679 14.6742 14.1668C14.6742 11.8656 12.8087 10.0001 10.5075 10.0001C8.2063 10.0001 6.34082 11.8656 6.34082 14.1668C6.34082 16.4679 8.2063 18.3334 10.5075 18.3334Z" fill="#4B4B4B"/>
<path id="Vector_7" opacity="0.2" d="M10.5081 10.2084C11.4386 10.2064 12.3437 10.5122 13.0823 11.0782C13.8209 11.6442 14.3515 12.4386 14.5915 13.3376C14.2048 11.4359 12.5215 10.0001 10.5081 10.0001C8.49481 10.0001 6.81064 11.4359 6.4248 13.3376C6.66479 12.4386 7.19541 11.6442 7.93399 11.0782C8.67257 10.5122 9.57763 10.2064 10.5081 10.2084Z" fill="#4B4B4B"/>
<path id="Vector_8" opacity="0.05" d="M10.5081 18.1293C9.57763 18.1313 8.67257 17.8255 7.93399 17.2595C7.19541 16.6935 6.66479 15.8991 6.4248 15.0001C6.81064 16.9018 8.49481 18.3376 10.5081 18.3376C12.5215 18.3376 14.2048 16.9018 14.5915 15.0001C14.3515 15.8991 13.8209 16.6935 13.0823 17.2595C12.3437 17.8255 11.4386 18.1313 10.5081 18.1293Z" fill="#010101"/>
<path id="Vector_9" d="M3.00098 9.15527e-05V3.73592C3.00074 4.09969 3.11953 4.45354 3.33921 4.74349C3.55888 5.03343 3.86739 5.24354 4.21764 5.34176L7.80348 6.34592C9.56785 6.84019 11.4341 6.84019 13.1985 6.34592L16.7843 5.34176C17.1346 5.24354 17.4431 5.03343 17.6627 4.74349C17.8824 4.45354 18.0012 4.09969 18.001 3.73592V9.15527e-05H3.00098Z" fill="#4B4B4B"/>
<path id="Vector_10" d="M7.16764 9.15527e-05H3.00098V3.73592C3.00074 4.09969 3.11953 4.45354 3.33921 4.74349C3.55888 5.03343 3.86739 5.24354 4.21764 5.34176L7.16764 6.16759V9.15527e-05ZM13.8343 9.15527e-05H18.001V3.73592C18.001 4.09955 17.8822 4.45321 17.6625 4.74298C17.4428 5.03276 17.1344 5.24275 16.7843 5.34092L13.8343 6.16759V9.15527e-05Z" fill="#4B4B4B"/>
<path id="Vector_11" opacity="0.2" d="M3.00098 9.15527e-05H18.001V0.208425H3.00098V9.15527e-05Z" fill="#4B4B4B"/>
<path id="Vector_12" opacity="0.1" d="M16.7843 5.13342L13.1985 6.13759C11.4341 6.63185 9.56785 6.63185 7.80348 6.13759L4.21764 5.13259C3.86753 5.03441 3.55912 4.82442 3.33946 4.53465C3.1198 4.24487 3.00093 3.89121 3.00098 3.52759V3.73592C3.00074 4.09969 3.11953 4.45354 3.33921 4.74348C3.55888 5.03343 3.86739 5.24354 4.21764 5.34175L7.80348 6.34676C9.56785 6.84102 11.4341 6.84102 13.1985 6.34676L16.7843 5.34175C17.1346 5.24354 17.4431 5.03343 17.6627 4.74348C17.8824 4.45354 18.0012 4.09969 18.001 3.73592V3.52759C18.001 3.89121 17.8822 4.24487 17.6625 4.53465C17.4428 4.82442 17.1344 5.03524 16.7843 5.13342Z" fill="#010101"/>
<path id="Vector_13" d="M9.09691 6.61426H9.08858L9.08691 6.61842L10.8177 8.34926C11.1576 8.36682 11.4953 8.41423 11.8269 8.49092C12.0344 8.21342 12.1611 7.87259 12.1611 7.50009C12.1603 7.18637 12.0701 6.87938 11.9011 6.61509C10.971 6.74655 10.027 6.74627 9.09691 6.61426Z" fill="#010101"/>
<path id="Vector_14" d="M10.5075 18.3334C12.8087 18.3334 14.6742 16.4679 14.6742 14.1668C14.6742 11.8656 12.8087 10.0001 10.5075 10.0001C8.2063 10.0001 6.34082 11.8656 6.34082 14.1668C6.34082 16.4679 8.2063 18.3334 10.5075 18.3334Z" fill="#4B4B4B"/>
<path id="Vector_15" d="M3.00098 9.15527e-05V3.73592C3.00074 4.09969 3.11953 4.45354 3.33921 4.74349C3.55888 5.03343 3.86739 5.24354 4.21764 5.34176L7.80348 6.34676C8.22681 6.46509 8.65681 6.55176 9.08931 6.61342C8.91931 6.87829 8.82853 7.1862 8.82764 7.50093C8.82764 7.87509 8.95598 8.21676 9.16431 8.49509C6.59098 9.10009 4.66764 11.4109 4.66764 14.1668C4.66764 17.3834 7.28431 20.0001 10.501 20.0001C13.7176 20.0001 16.3343 17.3834 16.3343 14.1668C16.3343 11.4068 14.4051 9.09342 11.826 8.49176C12.0426 8.20643 12.1605 7.85834 12.1618 7.50009C12.161 7.18637 12.0708 6.87938 11.9018 6.61509C12.3398 6.55416 12.7732 6.46424 13.1993 6.34592L16.7851 5.34092C17.1351 5.24259 17.4433 5.03254 17.6628 4.74278C17.8823 4.45302 18.0011 4.09944 18.001 3.73592V9.15527e-05H3.00098Z" fill="#4B4B4B"/>
</g>
<defs>
<clipPath id="clip0_749_327">
<rect width="20" height="20" fill="white" transform="translate(0.500977 9.15527e-05)"/>
</clipPath>
</defs>
</svg>
